<svg width="20" height="20" viewBox="0 0 20 20" fill="none" xmlns="http://www.w3.org/2000/svg">
<path d="M1.25 3.75C1.25 2.36929 2.36929 1.25 3.75 1.25H16.25C17.6307 1.25 18.75 2.36929 18.75 3.75V16.25C18.75 17.1754 18.2473 17.9833 17.5 18.4155L16.5961 18.1248C15.9736 17.9246 15.2975 17.9763 14.7126 18.2687L13.75 18.75H11.875L10 17.8125L8.125 18.75H6.25L5.28739 18.2687C4.70254 17.9763 4.02639 17.9246 3.40391 18.1248L2.5 18.4155C1.75275 17.9833 1.25 17.1754 1.25 16.25V3.75Z" fill="#E1D8EC"/>
<path d="M6.25 6.875V13.125H1.25V13.75H6.25V18.75H6.875V13.75H13.125V18.75H13.75V13.75H18.75V13.125H13.75V6.875H18.75V6.25H13.75V1.25H13.125V6.25H6.875V1.25H6.25V6.25H1.25V6.875H6.25ZM6.875 6.875H13.125V13.125H6.875V6.875Z" fill="#B4ACBC"/>
<path d="M3.75 18.75H6.25V6.38342C6.25 5.96347 5.90794 5.625 5.48353 5.625H3.26647C2.84206 5.625 2.5 5.96347 2.5 6.38342V18.4155C2.86772 18.6283 3.29464 18.75 3.75 18.75Z" fill="#00D26A"/>
<path d="M11.1085 10.625H8.89147C8.46706 10.625 8.125 10.9635 8.125 11.3836V18.75H11.875V11.3836C11.875 10.9635 11.5329 10.625 11.1085 10.625Z" fill="#F70A8D"/>
<path d="M13.75 18.75H16.25C16.7054 18.75 17.1323 18.6283 17.5 18.4155V4.50562C17.5 4.08722 17.1579 3.75 16.7335 3.75H14.5165C14.0921 3.75 13.75 4.08722 13.75 4.50562V18.75Z" fill="#00A6ED"/>
</svg>
