<svg width="24" height="24" viewBox="0 0 24 24" fill="none" xmlns="http://www.w3.org/2000/svg">
<path fill-rule="evenodd" clip-rule="evenodd" d="M14.0081 2.24452C14.346 2.57475 14.3509 3.115 14.019 3.45121L6.02895 11.5445C5.13596 12.4491 4.66176 13.6827 4.72019 14.9492L4.72689 15.0945C4.83153 17.363 6.65402 19.1798 8.934 19.2884C10.1931 19.3484 11.4182 18.871 12.3014 17.9762L19.5474 10.6358C20.0647 10.1118 20.3308 9.39188 20.278 8.65924L20.2645 8.47111C20.1733 7.20454 19.1626 6.19591 17.8898 6.10127L17.8438 6.09785C17.0878 6.04164 16.3453 6.32001 15.8146 6.85866L9.6245 13.1412C9.48696 13.2808 9.4026 13.4637 9.38593 13.6585L9.3814 13.7114C9.33922 14.2043 9.75434 14.6158 10.2497 14.5721C10.4394 14.5553 10.6168 14.4718 10.7502 14.3365L15.1459 9.87847C15.4777 9.54205 16.0207 9.53686 16.3588 9.86688C16.697 10.1969 16.7022 10.7371 16.3705 11.0736L11.9747 15.5316C11.5555 15.9568 10.9977 16.2193 10.4014 16.272C8.84448 16.4095 7.53964 15.1161 7.67223 13.5666L7.67675 13.5137C7.72725 12.9236 7.98281 12.3695 8.39951 11.9466L14.5896 5.66402C15.4741 4.76628 16.7116 4.30232 17.9717 4.39602L18.0177 4.39944C20.139 4.55717 21.8235 6.23821 21.9755 8.34917L21.989 8.5373C22.0769 9.75836 21.6334 10.9582 20.7712 11.8316L13.5253 19.172C12.2995 20.4138 10.5994 21.0762 8.85196 20.993C5.68781 20.8423 3.15855 18.321 3.01333 15.1727L3.00663 15.0274C2.92635 13.2869 3.57799 11.5917 4.80516 10.3487L12.7952 2.25537C13.1271 1.91916 13.6701 1.9143 14.0081 2.24452Z" fill="black"/>
</svg>
