<svg width="18" height="19" viewBox="0 0 18 19" fill="none" xmlns="http://www.w3.org/2000/svg">
<path d="M9.00075 13.8125C9.28883 13.8094 9.53708 13.7017 9.75675 13.4735L16.2218 6.86971C16.407 6.67738 16.5 6.44814 16.5 6.1712C16.5 5.62584 16.072 5.1875 15.5216 5.1875C15.2534 5.1875 15.0051 5.2967 14.8122 5.48577L9.00225 11.4478L3.18922 5.48577C2.99797 5.29824 2.7552 5.1875 2.47845 5.1875C1.92953 5.1875 1.5 5.62584 1.5 6.1712C1.5 6.44506 1.593 6.67738 1.78523 6.86971L8.24483 13.4735C8.4714 13.7033 8.71425 13.8125 9.00075 13.8125Z" fill="#747678"/>
</svg>
