<svg width="24" height="24" viewBox="0 0 24 24" fill="none" xmlns="http://www.w3.org/2000/svg">
<path d="M11.8857 15.0652C11.9283 15.0991 11.9696 15.1347 12.0095 15.1719C12.0502 15.1347 12.0923 15.0991 12.1357 15.0652C13.4615 14.0887 15.0381 13.5652 16.6535 13.5652C18.2689 13.5652 19.8455 14.0887 21.1713 15.0652C21.432 15.2728 21.6429 15.5424 21.7868 15.8522C21.9308 16.162 22.0038 16.5034 21.9999 16.8486V19.6522H2.00013V16.8713C1.99645 16.5205 2.0716 16.1738 2.21938 15.8598C2.36716 15.5458 2.58334 15.2735 2.85012 15.0652C4.17587 14.0887 5.75251 13.5652 7.36791 13.5652C8.98331 13.5652 10.56 14.0887 11.8857 15.0652Z" fill="#321B41"/>
<path d="M8.32558 4.00008H6.73708C6.31628 3.99685 5.89975 4.08814 5.51586 4.26772C5.13198 4.44731 4.78976 4.71098 4.51251 5.04077C4.23526 5.37057 4.0295 5.75874 3.90924 6.17884C3.78898 6.59894 3.75705 7.04112 3.81562 7.47524L3.8621 8.21028C3.2994 8.30426 2.86951 8.81235 2.86951 9.42504C2.86951 10.0927 3.38008 10.6362 4.01669 10.6549L4.08497 11.7346C4.17352 12.4335 4.50223 13.0752 5.01019 13.5409C5.36899 13.8698 5.80004 14.0951 6.26072 14.2001V14.8716C6.26072 15.217 6.39242 15.5483 6.62686 15.7925C6.8613 16.0367 7.17926 16.1739 7.5108 16.1739C7.84234 16.1739 8.16031 16.0367 8.39474 15.7925C8.62918 15.5483 8.76088 15.217 8.76088 14.8716V14.2076C9.2344 14.1062 9.67791 13.8779 10.0456 13.5409C10.5535 13.0752 10.8822 12.4335 10.9708 11.7346L11.0356 10.6536C11.4498 10.6302 11.8073 10.3846 11.9999 10.0292C12.1974 10.3934 12.5679 10.6424 12.9952 10.6549L13.0635 11.7346C13.152 12.4335 13.4807 13.0752 13.9887 13.5409C14.3475 13.8698 14.7785 14.0951 15.2392 14.2001V14.8716C15.2392 15.217 15.3709 15.5483 15.6053 15.7925C15.8398 16.0367 16.1577 16.1739 16.4893 16.1739C16.8208 16.1739 17.1388 16.0367 17.3732 15.7925C17.6077 15.5483 17.7394 15.217 17.7394 14.8716V14.2076C18.2129 14.1062 18.6564 13.8779 19.024 13.5409C19.532 13.0752 19.8607 12.4335 19.9493 11.7346L20.0141 10.6536C20.6363 10.6185 21.1304 10.0819 21.1304 9.42504C21.1304 8.82061 20.712 8.31798 20.1605 8.2143L20.2048 7.47524C20.2608 7.04332 20.2277 6.60393 20.1078 6.18639C19.9878 5.76885 19.7838 5.38275 19.5093 5.05387C19.2347 4.72499 18.8961 4.46087 18.5158 4.27916C18.1355 4.09744 17.7224 4.0023 17.3041 4.00008H15.7156C15.2948 3.99685 14.8782 4.08814 14.4943 4.26772C14.1105 4.44731 13.7682 4.71098 13.491 5.04077C13.2137 5.37057 13.008 5.75874 12.8877 6.17884C12.7675 6.59894 12.7355 7.04112 12.7941 7.47524L12.8406 8.21028C12.4795 8.27058 12.1732 8.50138 11.9999 8.8209C11.8304 8.50809 11.5332 8.28032 11.182 8.2143L11.2263 7.47524C11.2823 7.04332 11.2492 6.60393 11.1293 6.18639C11.0093 5.76885 10.8053 5.38275 10.5308 5.05387C10.2563 4.72499 9.91757 4.46087 9.5373 4.27916C9.15704 4.09744 8.74394 4.0023 8.32558 4.00008Z" fill="#533566"/>
</svg>
