<svg width="20" height="20" viewBox="0 0 20 20" fill="none" xmlns="http://www.w3.org/2000/svg">
<path d="M1.25 5.62514L9.54166 3.84836C9.84379 3.78362 10.1562 3.78362 10.4583 3.84836L18.75 5.62514V15.5001C18.75 17.2951 17.2949 18.7501 15.5 18.7501H4.5C2.70508 18.7501 1.25 17.2951 1.25 15.5001V5.62514Z" fill="#B4ACBC"/>
<path d="M1.875 5.00013L9.50812 3.23864C9.83179 3.16394 10.1682 3.16394 10.4919 3.23864L18.125 5.00013V15.3126C18.125 16.8659 16.8658 18.1251 15.3125 18.1251H4.6875C3.1342 18.1251 1.875 16.8659 1.875 15.3126V5.00013Z" fill="#F3EEF8"/>
<path d="M5 7.5C4.93096 7.5 4.875 7.55596 4.875 7.625V9.25C4.875 9.31904 4.93096 9.375 5 9.375H6.75C6.81904 9.375 6.875 9.31904 6.875 9.25V7.625C6.875 7.55596 6.81904 7.5 6.75 7.5H5Z" fill="#998EA4"/>
<path d="M5 10.9375C4.93096 10.9375 4.875 10.9935 4.875 11.0625V12.6875C4.875 12.7565 4.93096 12.8125 5 12.8125H6.75C6.81904 12.8125 6.875 12.7565 6.875 12.6875V11.0625C6.875 10.9935 6.81904 10.9375 6.75 10.9375H5Z" fill="#998EA4"/>
<path d="M4.875 14.4375C4.875 14.3685 4.93096 14.3125 5 14.3125H6.75C6.81904 14.3125 6.875 14.3685 6.875 14.4375V16.0625C6.875 16.1316 6.81904 16.1875 6.75 16.1875H5C4.93096 16.1875 4.875 16.1316 4.875 16.0625V14.4375Z" fill="#998EA4"/>
<path d="M9.12498 7.5C9.05595 7.5 8.99998 7.55596 8.99998 7.625V9.25C8.99998 9.31904 9.05595 9.375 9.12498 9.375H10.875C10.944 9.375 11 9.31904 11 9.25V7.625C11 7.55596 10.944 7.5 10.875 7.5H9.12498Z" fill="#998EA4"/>
<path d="M8.99998 11.0625C8.99998 10.9935 9.05595 10.9375 9.12498 10.9375H10.875C10.944 10.9375 11 10.9935 11 11.0625V12.6875C11 12.7565 10.944 12.8125 10.875 12.8125H9.12498C9.05595 12.8125 8.99998 12.7565 8.99998 12.6875V11.0625Z" fill="#998EA4"/>
<path d="M9.12498 14.3125C9.05595 14.3125 8.99998 14.3685 8.99998 14.4375V16.0625C8.99998 16.1316 9.05595 16.1875 9.12498 16.1875H10.875C10.944 16.1875 11 16.1316 11 16.0625V14.4375C11 14.3685 10.944 14.3125 10.875 14.3125H9.12498Z" fill="#998EA4"/>
<path d="M13.125 7.625C13.125 7.55596 13.181 7.5 13.25 7.5H15C15.069 7.5 15.125 7.55596 15.125 7.625V9.25C15.125 9.31904 15.069 9.375 15 9.375H13.25C13.181 9.375 13.125 9.31904 13.125 9.25V7.625Z" fill="#998EA4"/>
<path d="M13.25 14.3125C13.181 14.3125 13.125 14.3685 13.125 14.4375V16.0625C13.125 16.1316 13.181 16.1875 13.25 16.1875H15C15.069 16.1875 15.125 16.1316 15.125 16.0625V14.4375C15.125 14.3685 15.069 14.3125 15 14.3125H13.25Z" fill="#998EA4"/>
<path d="M4.5 1.25C2.70507 1.25 1.25 2.70507 1.25 4.5V5.625H18.75V4.5C18.75 2.70507 17.2949 1.25 15.5 1.25H4.5Z" fill="#0084CE"/>
<path d="M13.25 10.9375C13.181 10.9375 13.125 10.9935 13.125 11.0625V12.6875C13.125 12.7565 13.181 12.8125 13.25 12.8125H15C15.069 12.8125 15.125 12.7565 15.125 12.6875V11.0625C15.125 10.9935 15.069 10.9375 15 10.9375H13.25Z" fill="#0084CE"/>
</svg>
