<svg width="24" height="24" viewBox="0 0 24 24" fill="none" xmlns="http://www.w3.org/2000/svg">
<path d="M2 11.9999C2 12.7339 2.60606 13.3323 3.33231 13.3323H10.6699V20.6698C10.6699 21.3939 11.2661 22 11.9999 22C12.7339 22 13.3421 21.3939 13.3421 20.6698V13.3323H20.6698C21.3939 13.3323 22 12.7339 22 11.9999C22 11.2661 21.3939 10.6579 20.6698 10.6579H13.3421V3.33231C13.3421 2.60606 12.7339 2 11.9999 2C11.2661 2 10.6699 2.60606 10.6699 3.33231V10.6579H3.33231C2.60606 10.6579 2 11.2661 2 11.9999Z" fill="#222222"/>
</svg>
