<svg width="24" height="24" viewBox="0 0 24 24" fill="none" xmlns="http://www.w3.org/2000/svg">
<path fill-rule="evenodd" clip-rule="evenodd" d="M4 3C2.89543 3 2 3.89543 2 5V19C2 20.1046 2.89543 21 4 21H20C21.1046 21 22 20.1046 22 19V5C22 3.89543 21.1046 3 20 3H4ZM5 7C4.44772 7 4 7.44771 4 8V18C4 18.5523 4.44772 19 5 19H19C19.5523 19 20 18.5523 20 18V8C20 7.44772 19.5523 7 19 7H5Z" fill="black"/>
<path d="M11.2 9H10.3C10.1343 9 10 9.13431 10 9.3V10.2C10 10.3657 10.1343 10.5 10.3 10.5H11.2C11.3657 10.5 11.5 10.3657 11.5 10.2V9.3C11.5 9.13431 11.3657 9 11.2 9Z" fill="black"/>
<path d="M14.2 9H13.3C13.1343 9 13 9.13431 13 9.3V10.2C13 10.3657 13.1343 10.5 13.3 10.5H14.2C14.3657 10.5 14.5 10.3657 14.5 10.2V9.3C14.5 9.13431 14.3657 9 14.2 9Z" fill="black"/>
<path d="M17.2 9H16.3C16.1343 9 16 9.13431 16 9.3V10.2C16 10.3657 16.1343 10.5 16.3 10.5H17.2C17.3657 10.5 17.5 10.3657 17.5 10.2V9.3C17.5 9.13431 17.3657 9 17.2 9Z" fill="black"/>
<path d="M11.2 12H10.3C10.1343 12 10 12.1343 10 12.3V13.2C10 13.3657 10.1343 13.5 10.3 13.5H11.2C11.3657 13.5 11.5 13.3657 11.5 13.2V12.3C11.5 12.1343 11.3657 12 11.2 12Z" fill="black"/>
<path d="M8.2 12H7.3C7.13431 12 7 12.1343 7 12.3V13.2C7 13.3657 7.13431 13.5 7.3 13.5H8.2C8.36569 13.5 8.5 13.3657 8.5 13.2V12.3C8.5 12.1343 8.36569 12 8.2 12Z" fill="black"/>
<path d="M14.2 12H13.3C13.1343 12 13 12.1343 13 12.3V13.2C13 13.3657 13.1343 13.5 13.3 13.5H14.2C14.3657 13.5 14.5 13.3657 14.5 13.2V12.3C14.5 12.1343 14.3657 12 14.2 12Z" fill="black"/>
<path d="M17.2 12H16.3C16.1343 12 16 12.1343 16 12.3V13.2C16 13.3657 16.1343 13.5 16.3 13.5H17.2C17.3657 13.5 17.5 13.3657 17.5 13.2V12.3C17.5 12.1343 17.3657 12 17.2 12Z" fill="black"/>
<path d="M8.2 15H7.3C7.13431 15 7 15.1343 7 15.3V16.2C7 16.3657 7.13431 16.5 7.3 16.5H8.2C8.36569 16.5 8.5 16.3657 8.5 16.2V15.3C8.5 15.1343 8.36569 15 8.2 15Z" fill="black"/>
<path d="M11.2 15H10.3C10.1343 15 10 15.1343 10 15.3V16.2C10 16.3657 10.1343 16.5 10.3 16.5H11.2C11.3657 16.5 11.5 16.3657 11.5 16.2V15.3C11.5 15.1343 11.3657 15 11.2 15Z" fill="black"/>
<path d="M14.2 15H13.3C13.1343 15 13 15.1343 13 15.3V16.2C13 16.3657 13.1343 16.5 13.3 16.5H14.2C14.3657 16.5 14.5 16.3657 14.5 16.2V15.3C14.5 15.1343 14.3657 15 14.2 15Z" fill="black"/>
</svg>
