<svg width="20" height="20" viewBox="0 0 20 20" fill="none" xmlns="http://www.w3.org/2000/svg">
<path d="M15.6651 14.6282L14.9472 12.874L13.8757 13.3125L14.5945 15.0688L14.5953 15.0709C14.6989 15.3213 14.5801 15.5968 14.3392 15.6937L11.273 16.9515L11.2714 16.9522C11.021 17.0558 10.7454 16.9369 10.6485 16.696L9.92845 14.9365L8.85696 15.375L9.57513 17.1299C9.91621 17.9749 10.8769 18.3678 11.7131 18.0223L11.714 18.0219L14.7733 16.767C15.618 16.4259 16.0108 15.4655 15.6656 14.6294L15.6651 14.6282ZM5 14.6878L6.06765 16.7371C6.45515 17.1433 6.4364 17.7871 6.0239 18.1683C5.61765 18.5496 4.9739 18.5308 4.59265 18.1246L1.5239 14.8683C1.14265 14.4621 1.1614 13.8183 1.56765 13.4371C1.9739 13.0558 2.61765 13.0746 2.9989 13.4808L5 14.6878Z" fill="#FFB02E"/>
<path d="M18.2678 9.42428L11.049 1.76803C10.2553 0.924277 8.86152 1.14304 8.36777 2.19304L2.99902 13.4805L6.10527 16.7743L17.6928 12.0805C18.7615 11.6493 19.0615 10.268 18.2678 9.42428Z" fill="#F9C23C"/>
</svg>
