<?xml version="1.0" encoding="UTF-8"?>
<svg id="_레이어_1" data-name="레이어 1" xmlns="http://www.w3.org/2000/svg" version="1.1" viewBox="0 0 87.6 21.9">
  <defs>
    <style>
      .cls-1 {
        fill: #0067bc;
        stroke-width: 0px;
      }
    </style>
  </defs>
  <path class="cls-1" d="M.1,18h8.4c0-1.6,0-3.4.1-4.2.7-.1,2.8-.1,3.7,0v4.2h8.5c.1.9.1,2.1,0,3.1-2.1.1-17.8.1-20.6,0-.2-.9-.2-2.2,0-3.1ZM1.4,1c2.3-.1,15.4-.1,17.8,0,.1.9.1,2.4,0,3.3H5.1v4.9h14.5c.1.9.1,2.5,0,3.2-2,.1-15.9.1-18.3,0,0-2.8,0-8.7.1-11.4Z"/>
  <path class="cls-1" d="M23.4,12.5c1.5-.1,17.2-.1,17.8,0,0,1.9,0,7.5,0,9.3-1.6.1-16,.2-17.8,0,0-2.7,0-6.9,0-9.3ZM37.7,18.8v-3.2c-1.3-.1-9.2,0-10.8,0,0,.7-.1,2.3,0,3.2h10.8ZM37.7.1C38.4,0,40.4,0,41.3.1v3.6h2.1c0,.9,0,2.3,0,3.2-.4,0-1.1.1-2.1.1v4.3c-.7.1-2.7.1-3.6,0-.1-1.9-.1-9.4,0-11.2Z"/>
  <path class="cls-1" d="M44.2,18h8.5v-4.2c.7-.1,2.8-.1,3.7,0v4.2h8.5c0,.9,0,2.1,0,3.1-2.1.1-17.8.1-20.6,0-.2-.9-.2-2.2-.1-3.1ZM45.5,1c2.3-.1,15.4-.1,17.8,0,0,.9,0,2.4,0,3.3h-14.1v4.9h14.5c0,.9,0,2.5,0,3.2-2,.1-15.9.1-18.3,0,0-2.8,0-8.7.1-11.4Z"/>
  <path class="cls-1" d="M67.6,12.5c1.5-.1,17.2-.1,17.8,0,0,1.9,0,7.5,0,9.3-1.6.1-16,.2-17.8,0-.2-2.7,0-6.9,0-9.3ZM81.9,18.8c0-.7,0-2.4,0-3.2-1.3-.1-9.2,0-10.8,0,0,.7,0,2.3,0,3.2h10.8ZM81.8.1C82.5,0,84.5,0,85.4.1v3.6h2.1c0,.9,0,2.3,0,3.2-.4,0-1.1,0-2.1,0,0,1.8,0,3.4,0,4.3-.7.1-2.7.1-3.6,0,0-1.9,0-9.4,0-11.2Z"/>
  <path class="cls-1" d="M35.7,10.3c.2-2.8.2-7.1,0-9.8-.7,0-2,0-3.6,0h0c-3.2,0-7.7,0-9.4,0-.2,2.8-.2,7.1,0,9.8,1.4.1,6,.1,9.4.1h1.4c.2,0,2.2-.1,2.2-.1ZM26.2,7.3v-3.8h5.8v3.8h-5.8Z"/>
  <path class="cls-1" d="M79.9,10.3c.2-2.8.2-7.1,0-9.8-.7,0-2,0-3.6,0h0c-3.2,0-7.7,0-9.4,0-.2,2.8-.2,7.1,0,9.8,1.4.1,6,.1,9.4.1h1.4c.2,0,2.2-.1,2.2-.1ZM70.4,7.3v-3.8h5.8v3.8h-5.8Z"/>
</svg>