<svg width="24" height="24" viewBox="0 0 24 24" fill="none" xmlns="http://www.w3.org/2000/svg">
<path d="M10.8761 17C11.2682 17 11.6096 16.8023 11.8419 16.4359L16.7298 8.67492C16.8678 8.43477 17 8.17636 17 7.92602C17 7.37016 16.5156 7 16.0016 7C15.6812 7 15.3844 7.19375 15.1531 7.55989L10.8384 14.6062L8.80746 11.9735C8.53932 11.622 8.28119 11.5131 7.95159 11.5131C7.42462 11.5131 7 11.9479 7 12.4927C7 12.7611 7.10225 13.0023 7.28279 13.2434L9.86662 16.444C10.1595 16.8225 10.4801 17 10.8761 17Z" fill="black"/>
</svg>
