<svg width="36" height="36" viewBox="0 0 36 36" fill="none" xmlns="http://www.w3.org/2000/svg">
<path d="M8.98875 11.2613H27.0225C27.63 11.2613 28.125 10.7663 28.1362 10.1475V4.48875C28.1362 3.87 27.63 3.375 27.0225 3.375H8.98875C8.37 3.375 7.875 3.88125 7.875 4.48875V10.1475C7.875 10.7663 8.38125 11.2613 8.98875 11.2613Z" fill="#D3D3D3"/>
<path d="M3.375 13.5113H32.625V31.5113H3.375V13.5113Z" fill="#D3D3D3"/>
<path d="M25.8753 5.0625V9.585C25.8753 9.88875 25.6278 10.1363 25.3241 10.1363H25.3016C24.9978 10.1363 24.7503 9.88875 24.7503 9.585V7.8975H22.5003V9.585C22.5003 9.88875 22.2528 10.1363 21.9491 10.1363H21.9266C21.6228 10.1363 21.3753 9.88875 21.3753 9.585V5.0625C21.3753 4.75875 21.6228 4.51125 21.9266 4.51125H21.9491C22.2528 4.51125 22.5003 4.75875 22.5003 5.0625V6.76125H24.7503V5.0625C24.7503 4.75875 24.9978 4.51125 25.3016 4.51125H25.3241C25.6278 4.51125 25.8753 4.75875 25.8753 5.0625ZM13.6578 10.1363C14.0516 10.1363 14.2541 9.93375 14.2541 9.54C14.2541 9.14625 14.0403 9 13.6466 9H12.0828L12.9941 8.06625C13.3541 7.7175 13.6016 7.39125 13.7591 7.07625C13.9053 6.7725 13.984 6.4575 13.984 6.12C13.984 5.59125 13.8153 5.1975 13.4778 4.91625C13.1403 4.635 12.6453 4.5 12.0153 4.5C11.7565 4.5 11.4866 4.53375 11.2278 4.59C10.9691 4.64625 10.7216 4.7475 10.4741 4.87125C10.3391 4.93875 10.2378 5.04 10.1928 5.1525C10.1366 5.265 10.1141 5.31 10.1366 5.4225C10.1591 5.535 10.2041 5.63625 10.2716 5.72625C10.3391 5.81625 10.4403 5.8725 10.5528 5.90625C10.6653 5.94 10.8003 5.9175 10.9353 5.85C11.0928 5.76 11.2391 5.70375 11.3853 5.67C11.5316 5.63625 11.6666 5.61375 11.7903 5.61375C12.2966 5.61375 12.5666 5.88375 12.5666 6.2775C12.5666 6.435 12.5216 6.5925 12.4316 6.75C12.3416 6.9075 12.1953 7.09875 11.9928 7.3125L10.5978 8.7975C10.4853 8.91 10.4066 9.0225 10.3391 9.135C10.2716 9.2475 10.2603 9.3375 10.2603 9.48375C10.2603 9.6975 10.3166 9.855 10.4178 9.95625C10.5191 10.0688 10.6878 10.1138 10.9128 10.1138H13.6578V10.1363ZM19.1366 8.47125C19.1141 8.775 18.8553 9 18.5516 9H17.9891V9.55125C17.9891 9.855 17.7641 10.1138 17.4603 10.1363C17.134 10.1588 16.8641 9.9 16.8641 9.57375V9H15.1653C15.0641 9 14.9741 8.96625 14.8841 8.92125C14.8728 8.91 14.8616 8.92125 14.8503 8.91C14.8391 8.89875 14.8278 8.8875 14.8166 8.87625C14.7828 8.85375 14.7603 8.83125 14.7378 8.7975C14.7153 8.76375 14.6928 8.74125 14.6816 8.7075C14.6703 8.67375 14.6478 8.65125 14.6478 8.60625C14.6365 8.5725 14.6253 8.5275 14.6253 8.49375C14.6253 8.47125 14.6141 8.46 14.6141 8.4375C14.6141 8.415 14.6253 8.40375 14.6253 8.3925C14.6253 8.35875 14.6365 8.31375 14.6478 8.28C14.6591 8.24625 14.6703 8.2125 14.6928 8.17875C14.7041 8.1675 14.7041 8.145 14.7153 8.13375L16.9766 4.75875C16.9878 4.7475 16.9991 4.73625 17.0103 4.725C17.0328 4.69125 17.0553 4.66875 17.0891 4.64625C17.1228 4.62375 17.1453 4.60125 17.179 4.59C17.2128 4.5675 17.2466 4.55625 17.2803 4.545C17.3141 4.53375 17.3478 4.5225 17.3928 4.5225C17.4153 4.5225 17.4266 4.51125 17.4491 4.51125C17.4716 4.51125 17.4828 4.5225 17.5053 4.5225C17.5391 4.5225 17.5728 4.53375 17.6066 4.545C17.6403 4.55625 17.6741 4.5675 17.7078 4.59C17.7191 4.60125 17.7416 4.60125 17.7528 4.6125C17.7641 4.62375 17.7753 4.635 17.7866 4.64625C17.8203 4.66875 17.8428 4.69125 17.8653 4.725C17.8878 4.75875 17.9103 4.78125 17.9215 4.815C17.9328 4.84875 17.9553 4.87125 17.9553 4.91625C17.9666 4.95 17.9778 4.995 17.9778 5.02875C17.9778 5.05125 17.9891 5.0625 17.9891 5.085V7.8975H18.5628C18.9003 7.875 19.1591 8.145 19.1366 8.47125ZM16.8753 7.875V6.91875L16.234 7.875H16.8753Z" fill="#533566"/>
<path d="M11.25 11.2612H12.375V13.5112H11.25V11.2612ZM23.625 11.2612H24.75V13.5112H23.625V11.2612Z" fill="#433B6B"/>
<path d="M15.75 31.5112H5.625V20.925C5.625 20.5537 5.9175 20.2612 6.28875 20.2612H15.0863C15.4575 20.2612 15.75 20.5537 15.75 20.925V31.5112Z" fill="#635994"/>
<path d="M14.6255 22.005V29.7675C14.6255 30.105 14.3442 30.3862 14.0067 30.3862H11.8805C11.543 30.3862 11.2617 30.105 11.2617 29.7675V22.005C11.2617 21.6675 11.543 21.3862 11.8805 21.3862H14.0067C14.3442 21.3862 14.6255 21.6675 14.6255 22.005Z" fill="#83CBFF"/>
<path d="M10.1255 22.005V29.7675C10.1255 30.105 9.84422 30.3862 9.50672 30.3862H7.38047C7.04297 30.3862 6.76172 30.105 6.76172 29.7675V22.005C6.76172 21.6675 7.04297 21.3862 7.38047 21.3862H9.50672C9.84422 21.3862 10.1255 21.6675 10.1255 22.005Z" fill="#83CBFF"/>
<path d="M19.6767 27.0112H28.7105C29.003 27.0112 29.2505 26.7637 29.2617 26.46V23.0512C29.2617 22.7475 29.0142 22.5 28.7105 22.5H19.6767C19.373 22.5 19.1255 22.7475 19.1255 23.0512V26.46C19.1255 26.7637 19.373 27.0112 19.6767 27.0112Z" fill="#83CBFF"/>
<path d="M32.895 18.0113H3.11625C2.64375 18.0113 2.25 17.6288 2.25 17.145V14.3663C2.25 13.8938 2.6325 13.5 3.11625 13.5H32.895C33.3675 13.5 33.7612 13.8825 33.7612 14.3663V17.145C33.75 17.6288 33.3675 18.0113 32.895 18.0113Z" fill="#F8312F"/>
</svg>
