<svg width="24" height="24" viewBox="0 0 24 24" fill="none" xmlns="http://www.w3.org/2000/svg">
<path d="M13.9873 22.5057H9.94485C5.28732 22.5057 1.50732 18.7257 1.50732 14.0682V10.1232H22.4248V14.0682C22.4248 18.7257 18.6448 22.5057 13.9873 22.5057Z" fill="#F8312F"/>
<path d="M16.44 5.79568C18.825 5.79568 20.7675 7.7382 20.7675 10.1232C20.7675 12.5082 18.825 14.4507 16.44 14.4507H7.485C5.1 14.4507 3.1575 12.5082 3.1575 10.1232C3.1575 7.7382 5.1 5.79568 7.485 5.79568H16.44ZM16.44 4.13818H7.485C4.1775 4.13818 1.5 6.81568 1.5 10.1232C1.5 13.4307 4.1775 16.1082 7.485 16.1082H16.4325C19.74 16.1082 22.4175 13.4307 22.4175 10.1232C22.425 6.82318 19.74 4.13818 16.44 4.13818Z" fill="#CA0B4A"/>
<path d="M3.17552 9.21195L3.16214 9.0855C3.14688 8.94113 3.12304 8.79323 3.09584 8.62583L3.08774 8.5761C3.0216 8.17148 2.93069 7.61528 3.08385 7.07556C3.11186 6.97414 3.1363 6.88289 3.15831 6.80066C3.25838 6.42689 3.30862 6.23926 3.41894 6.12893L3.41803 6.12321C3.52838 5.9817 3.61939 5.8555 3.69284 5.72844C3.81095 5.52332 3.90471 5.28538 4.02204 4.98235L4.0419 4.93096C4.21078 4.4936 4.44308 3.89198 4.89964 3.43542C5.34953 2.98553 5.9401 2.7536 6.36819 2.58548L6.41831 2.56578C6.72733 2.44411 6.96502 2.34858 7.1666 2.22764L7.1719 2.22445L7.17725 2.22136C7.37253 2.10853 7.56578 1.95422 7.8156 1.75199L7.85783 1.71774C8.22345 1.42121 8.73135 1.00932 9.3687 0.841208C9.9804 0.675442 10.6108 0.773836 11.0694 0.845416L11.1257 0.854183C11.4506 0.904583 11.7101 0.943253 11.955 0.943253C12.1999 0.943253 12.4593 0.904583 12.7843 0.854183L12.8405 0.845416C13.2992 0.773836 13.9295 0.675441 14.5412 0.841208C15.1786 1.00932 15.6865 1.42121 16.0521 1.71774L16.0943 1.75199C16.344 1.95406 16.5371 2.1083 16.7322 2.2211C16.9373 2.33922 17.1753 2.43299 17.4784 2.55033L17.5297 2.57019C17.9671 2.73907 18.5687 2.97137 19.0253 3.42793C19.4804 3.88306 19.7126 4.48498 19.8806 4.92049L19.9005 4.97201C20.019 5.27829 20.1127 5.51593 20.2306 5.71829L20.2318 5.72054C20.3195 5.87221 20.4322 6.02264 20.5729 6.19931L20.5723 6.20217C20.7663 6.48978 20.7724 6.51401 20.8391 6.77668C20.8581 6.85115 20.8819 6.94477 20.9162 7.06899C21.0693 7.60868 20.9784 8.16488 20.9123 8.5695L20.9042 8.61915C20.8766 8.78888 20.8525 8.9385 20.8372 9.08453L20.825 9.20205C20.7246 11.5879 18.6599 13.5 16.1372 13.5H7.86285C5.34374 13.5 3.28122 11.5931 3.17552 9.21195Z" fill="#BEBEBE"/>
<path d="M20.858 9.55402C20.8287 9.74288 20.7992 9.93278 20.7804 10.1221H20.7676V10.1231C20.7676 12.5081 18.8251 14.4506 16.4401 14.4506H7.48509C5.10009 14.4506 3.15759 12.5081 3.15759 10.1231V10.1221H3.14393C3.12506 9.93525 3.09601 9.7479 3.06711 9.56153C2.9896 9.06165 2.91321 8.56905 3.03754 8.1132C3.16346 7.6329 3.48656 7.23373 3.80672 6.83823C4.00143 6.59769 4.19504 6.35851 4.34254 6.10324C4.49453 5.8394 4.60814 5.54597 4.72152 5.25312C4.90468 4.78007 5.08724 4.30853 5.43004 3.96574C5.76779 3.62799 6.23052 3.44578 6.69317 3.26361C6.99076 3.14643 7.28831 3.02927 7.5525 2.87074C7.8078 2.72324 8.04698 2.52962 8.2875 2.33492C8.68305 2.01476 9.0822 1.69166 9.5625 1.56574C10.0184 1.44141 10.511 1.5178 11.0108 1.59531C11.3252 1.64405 11.6423 1.69324 11.955 1.69324C12.2678 1.69324 12.5849 1.64405 12.8993 1.59531C13.3991 1.5178 13.8917 1.44141 14.3475 1.56574C14.8279 1.69166 15.227 2.01476 15.6226 2.33492C15.8631 2.52962 16.1023 2.72324 16.3575 2.87074C16.6214 3.02273 16.9148 3.13634 17.2076 3.24972C17.6807 3.43288 18.1523 3.61544 18.495 3.95824C18.8363 4.29949 19.0188 4.7712 19.2011 5.24258C19.3153 5.5378 19.4294 5.83289 19.5825 6.09574C19.73 6.35101 19.9237 6.59019 20.1184 6.83073C20.4385 7.22623 20.7617 7.6254 20.8875 8.1057C21.0119 8.56155 20.9355 9.05415 20.858 9.55402Z" fill="#F4F4F4"/>
<path d="M11.2875 3.35819L12 4.58819C12.1575 4.86569 12.0675 5.21069 11.79 5.36819C11.5125 5.52569 11.1675 5.42819 11.01 5.15819L10.2975 3.92819C10.14 3.65069 10.2375 3.30569 10.5075 3.14819C10.785 2.99069 11.13 3.08819 11.2875 3.35819Z" fill="#BEBEBE"/>
<path d="M14.55 5.94577L14.8125 4.55077C14.8725 4.24327 15.1725 4.04077 15.48 4.09327C15.795 4.15327 15.9975 4.45327 15.9375 4.76077L15.675 6.15577C15.615 6.47077 15.315 6.67327 15.0075 6.61327C14.6925 6.55327 14.49 6.25327 14.55 5.94577Z" fill="#BEBEBE"/>
<path d="M9.69001 9.4782L9.11251 8.1807C8.98501 7.8882 9.11251 7.5582 9.39751 7.43071C9.68251 7.30321 10.02 7.43071 10.1475 7.7157L10.725 9.0132C10.8525 9.2982 10.725 9.6357 10.44 9.7632C10.155 9.8907 9.81751 9.7632 9.69001 9.4782Z" fill="#BEBEBE"/>
<path d="M6.92245 12.7483L7.18495 11.3533C7.23745 11.0383 7.53747 10.8358 7.85247 10.8958C8.16747 10.9558 8.36997 11.2558 8.30997 11.5633L8.04747 12.9583C7.98747 13.2733 7.68747 13.4758 7.37995 13.4158C7.06495 13.3558 6.86245 13.0558 6.92245 12.7483Z" fill="#BEBEBE"/>
<path d="M5.86498 8.59321L4.60498 9.25321C4.32748 9.39571 4.21498 9.74071 4.36498 10.0182C4.50748 10.2957 4.85248 10.4082 5.12998 10.2582L6.38998 9.59821C6.66748 9.45571 6.77998 9.11071 6.62998 8.83321C6.48748 8.55571 6.14248 8.45071 5.86498 8.59321Z" fill="#BEBEBE"/>
<path d="M6.77996 4.77569L5.93246 5.91569C5.74496 6.17069 5.79746 6.52319 6.05246 6.71069C6.30746 6.89819 6.65996 6.8457 6.84746 6.59069L7.69498 5.4507C7.88248 5.1957 7.82998 4.8432 7.57498 4.6557C7.32746 4.4682 6.96746 4.52069 6.77996 4.77569Z" fill="#BEBEBE"/>
<path d="M11.1975 12.4257L12.045 11.2857C12.2325 11.0382 12.585 10.9857 12.84 11.1657C13.095 11.3532 13.1475 11.7057 12.96 11.9607L12.1125 13.1007C11.925 13.3557 11.5725 13.4082 11.3175 13.2207C11.0625 13.0332 11.01 12.6807 11.1975 12.4257Z" fill="#BEBEBE"/>
<path d="M17.64 8.2557L18.5625 9.3357C18.765 9.5757 19.125 9.6057 19.365 9.4032C19.605 9.2007 19.635 8.8407 19.4325 8.6007L18.51 7.5207C18.3075 7.2807 17.9475 7.2507 17.7075 7.4532C17.4675 7.6632 17.4375 8.0157 17.64 8.2557Z" fill="#BEBEBE"/>
<path d="M18.03 12.4107L17.3175 11.1807C17.16 10.9107 16.815 10.8132 16.5375 10.9707C16.2675 11.1282 16.17 11.4732 16.3275 11.7507L17.04 12.9807C17.1975 13.2507 17.5425 13.3482 17.82 13.1907C18.09 13.0332 18.1875 12.6882 18.03 12.4107Z" fill="#BEBEBE"/>
<path d="M13.86 7.9107L15.165 8.4732C15.45 8.5932 15.585 8.9307 15.465 9.2232C15.3375 9.5157 15 9.6507 14.715 9.5232L13.41 8.9607C13.1175 8.8332 12.9825 8.4957 13.11 8.2107C13.2375 7.9182 13.575 7.7832 13.86 7.9107Z" fill="#BEBEBE"/>
</svg>
