<svg width="20" height="20" viewBox="0 0 20 20" fill="none" xmlns="http://www.w3.org/2000/svg">
<path d="M10.397 4.74121L13.2157 6.32519L14.8164 9.16063L5.85594 18.1211L2.81729 16.5146L1.43652 13.7017L10.397 4.74121Z" fill="#FF822D"/>
<path d="M0.868164 17.5405L1.23201 18.3603L2.01638 18.6887L5.84788 18.1104L1.44645 13.709L0.868164 17.5405Z" fill="#FFCE7C"/>
<path d="M0.664062 18.8933L0.868165 17.541L2.01636 18.6892L0.664062 18.8933Z" fill="#402A32"/>
<path d="M13.9226 1.21573C14.4108 0.727571 15.2022 0.727571 15.6904 1.21573L18.342 3.86738C18.8302 4.35553 18.8302 5.14699 18.342 5.63514L16.1323 7.84485L13.3028 6.42979L11.7129 3.42543L13.9226 1.21573Z" fill="#F92F60"/>
<path d="M11.7125 3.4248L16.132 7.84422L14.8061 9.17005L10.3867 4.75063L11.7125 3.4248Z" fill="#D3D3D3"/>
</svg>
