<svg width="24" height="24" viewBox="0 0 24 24" fill="none" xmlns="http://www.w3.org/2000/svg">
<path d="M12.0003 4C12.1951 4.00005 12.3854 4.05859 12.5467 4.16808C12.708 4.27758 12.833 4.43301 12.9054 4.61435C13.3658 5.77002 13.9367 6.49916 14.5181 6.9596C15.0955 7.42003 15.7301 7.65091 16.3778 7.73439C17.7134 7.90787 19.0841 7.45786 19.9307 7.08351L19.9528 7.07438C20.0738 7.0209 20.209 6.9609 20.3248 6.91786H20.3313C20.5592 6.83052 20.8071 6.80927 21.0465 6.85655C21.2184 6.89482 21.38 6.96988 21.5203 7.07659C21.6606 7.18329 21.7763 7.31913 21.8594 7.47482C22.0206 7.77482 22.0024 8.07743 21.9959 8.17656V8.17917C21.9868 8.30178 21.966 8.44526 21.9491 8.56918C21.6084 10.9601 21.2624 13.3497 20.9282 15.7406C20.7591 16.9406 20.1232 17.688 18.9332 18.0336C14.4005 19.3221 9.60004 19.3221 5.06735 18.0336C3.8774 17.688 3.24015 16.9406 3.07239 15.7406C2.73816 13.3497 2.39223 10.9601 2.0515 8.56918C2.03102 8.43981 2.0154 8.30972 2.00468 8.17917V8.17656C1.98414 7.93446 2.03144 7.69141 2.14124 7.47482C2.22433 7.31913 2.33998 7.18329 2.48027 7.07659C2.62055 6.96988 2.78216 6.89482 2.95405 6.85655C3.19336 6.80886 3.44123 6.82965 3.66932 6.91655L3.67452 6.91916C3.79156 6.9609 3.92682 7.0209 4.04776 7.07438L4.06987 7.08351C4.91519 7.45786 6.28592 7.90787 7.62023 7.73569C8.30104 7.65484 8.94615 7.38618 9.48384 6.9596C10.0626 6.49916 10.6335 5.77002 11.0952 4.61435C11.1676 4.43301 11.2926 4.27758 11.4539 4.16808C11.6152 4.05859 11.8055 4.00005 12.0003 4Z" fill="#FFC800"/>
</svg>
