<svg width="1920" height="1080" viewBox="0 0 1920 1080" fill="none" xmlns="http://www.w3.org/2000/svg">
<rect width="1920" height="1080" fill="#0083F0"/>
<path d="M1086.21 683V603.459H1112.43V618.4H1113.31C1116.61 608.586 1125.03 602.434 1136.02 602.434C1147.15 602.434 1155.94 608.732 1157.7 618.4H1158.57C1161.36 608.732 1170.81 602.434 1182.6 602.434C1197.76 602.434 1208.16 612.907 1208.23 629.387V683H1180.55V636.271C1180.47 629.021 1176.45 624.772 1170.44 624.699C1164.21 624.772 1160.41 629.167 1160.48 636.271V683H1133.96V636.125C1133.89 629.094 1129.94 624.772 1123.86 624.699C1117.71 624.772 1113.82 629.24 1113.9 636.418V683H1086.21Z" fill="white"/>
<path d="M1035.67 684.465C1010.33 684.465 994.878 669.157 994.805 643.449C994.878 618.84 1010.55 602.434 1035.09 602.434C1058.67 602.434 1074.27 617.595 1074.35 643.156V649.748H1022.2V650.773C1022.2 659.05 1027.4 664.836 1036.26 664.836C1042.34 664.836 1047.1 662.272 1048.86 657.658H1074.2C1071.49 674.064 1057.43 684.465 1035.67 684.465ZM1022.2 634.221H1048.71C1048.64 627.043 1043.07 621.989 1035.67 622.062C1028.28 621.989 1022.42 627.043 1022.2 634.221Z" fill="white"/>
<path d="M986.895 603.459V623.527H972.979V657.512C972.979 661.247 974.81 662.712 978.691 662.932C980.669 663.005 984.771 662.785 987.92 662.492V683.146C985.356 683.659 980.962 684.099 974.736 684.172C955.474 684.099 945.073 676.848 945.293 660.295V623.527H935.039V603.459H945.293V584.416H972.979V603.459H986.895Z" fill="white"/>
<path d="M901.348 629.094C900.835 624.113 896.074 620.964 890.215 621.037C885.015 620.964 880.767 623.088 880.84 626.604C880.767 629.021 882.598 631.291 888.896 632.463L904.717 635.393C920.903 638.322 928.74 645.207 928.887 656.926C928.74 673.771 912.847 684.465 890.947 684.465C866.924 684.465 853.081 673.771 851.396 657.658H878.936C879.814 662.785 884.429 665.642 891.094 665.715C896.66 665.642 900.615 663.664 900.762 660.148C900.615 656.926 897.759 655.168 891.387 653.996L877.471 651.506C861.357 648.576 853.301 640.593 853.301 628.215C853.301 611.735 867.217 602.434 889.629 602.434C912.261 602.434 926.03 612.468 926.836 629.094H901.348Z" fill="white"/>
<path d="M783.135 712.883C777.935 712.81 773.101 712.736 769.512 712.443V691.789C773.247 692.082 776.836 692.082 779.912 692.082C783.867 692.082 786.724 691.643 788.262 687.834L788.848 686.369L760.869 603.459H789.727L803.057 658.977H803.936L817.559 603.459H846.562L817.266 689.885C812.944 702.995 803.643 712.81 783.135 712.883Z" fill="white"/>
<path d="M727.324 609.758C726.738 602.653 722.051 598.405 712.529 598.479C703.374 598.405 699.126 602.067 699.053 606.975C698.833 612.468 703.813 615.471 713.701 617.521L722.49 619.572C745.269 624.406 755.449 635.466 755.596 651.799C755.449 672.6 739.482 684.245 712.676 684.318C685.283 684.245 667.485 672.38 667.266 646.232H693.926C694.365 656.12 701.177 661.32 712.236 661.32C721.831 661.32 726.958 657.438 727.031 651.799C726.958 646.672 722.563 643.669 710.771 641.105L700.078 638.762C681.401 634.66 669.976 625.432 670.049 609.025C669.902 588.957 687.627 575.48 712.529 575.48C737.944 575.48 753.984 589.177 754.131 609.758H727.324Z" fill="white"/>
<path d="M571.904 638.029V683H544.219V603.459H570.439V618.4H571.318C574.761 608.513 583.916 602.434 595.635 602.434C612.48 602.434 623.467 614.812 623.32 632.316V683H595.635V638.029C595.781 629.826 591.387 624.919 583.916 624.992C576.592 624.919 571.904 629.899 571.904 638.029Z" fill="white"/>
<path d="M487.969 714.494C464.312 714.494 450.396 703.654 449.297 688.42H476.104C476.909 693.62 481.89 695.671 488.701 695.744C496.465 695.671 502.104 692.448 502.031 682.854V669.23H501.299C498.149 677.141 489.873 681.975 478.887 681.975C461.748 681.975 447.393 670.549 447.393 643.156C447.393 614.592 462.7 602.434 478.594 602.434C490.679 602.434 498.003 609.392 501.006 617.229H501.738V603.459H529.424V683C529.424 703.142 512.798 714.494 487.969 714.494ZM475.957 643.156C475.884 655.241 480.645 662.199 488.848 662.199C497.124 662.199 502.104 655.095 502.178 643.156C502.104 631.071 497.197 623.747 488.848 623.82C480.645 623.747 475.884 631.145 475.957 643.156Z" fill="white"/>
<path d="M407.549 683V603.459H435.234V683H407.549ZM407.549 582.072C407.475 575.041 413.701 569.328 421.318 569.328C428.862 569.328 435.088 575.041 435.088 582.072C435.088 589.177 428.862 594.89 421.318 594.816C413.701 594.89 407.475 589.177 407.549 582.072Z" fill="white"/>
<path d="M368.73 629.094C368.218 624.113 363.457 620.964 357.598 621.037C352.397 620.964 348.149 623.088 348.223 626.604C348.149 629.021 349.98 631.291 356.279 632.463L372.1 635.393C388.286 638.322 396.123 645.207 396.27 656.926C396.123 673.771 380.229 684.465 358.33 684.465C334.307 684.465 320.464 673.771 318.779 657.658H346.318C347.197 662.785 351.812 665.642 358.477 665.715C364.043 665.642 367.998 663.664 368.145 660.148C367.998 656.926 365.142 655.168 358.77 653.996L344.854 651.506C328.74 648.576 320.684 640.593 320.684 628.215C320.684 611.735 334.6 602.434 357.012 602.434C379.644 602.434 393.413 612.468 394.219 629.094H368.73Z" fill="white"/>
<path d="M271.904 684.465C246.562 684.465 231.108 669.157 231.035 643.449C231.108 618.84 246.782 602.434 271.318 602.434C294.902 602.434 310.503 617.595 310.576 643.156V649.748H258.428V650.773C258.428 659.05 263.628 664.836 272.49 664.836C278.569 664.836 283.33 662.272 285.088 657.658H310.43C307.72 674.064 293.657 684.465 271.904 684.465ZM258.428 634.221H284.941C284.868 627.043 279.302 621.989 271.904 622.062C264.507 621.989 258.647 627.043 258.428 634.221Z" fill="white"/>
<path d="M167.461 683H127.178V576.945H167.168C199.834 576.945 220.195 596.794 220.195 629.973C220.195 663.078 199.834 683 167.461 683ZM155.01 659.27H166.436C182.769 659.27 192.07 652.312 192.07 629.973C192.07 607.561 182.769 600.676 165.703 600.676H155.01V659.27Z" fill="white"/>
<path d="M504.521 504V424.459H530.742V439.4H531.621C534.917 429.586 543.34 423.434 554.326 423.434C565.459 423.434 574.248 429.732 576.006 439.4H576.885C579.668 429.732 589.116 423.434 600.908 423.434C616.069 423.434 626.47 433.907 626.543 450.387V504H598.857V457.271C598.784 450.021 594.756 445.772 588.75 445.699C582.524 445.772 578.716 450.167 578.789 457.271V504H552.275V457.125C552.202 450.094 548.247 445.772 542.168 445.699C536.016 445.772 532.134 450.24 532.207 457.418V504H504.521Z" fill="white"/>
<path d="M414.873 482.027C414.873 464.522 427.983 457.638 444.17 456.686C450.176 456.393 459.551 456.1 462.773 455.953V449.508C462.7 445.113 459.111 442.623 453.691 442.623C448.052 442.623 444.243 445.04 443.584 450.094H417.949C418.975 435.665 430.693 423.434 454.131 423.434C476.177 423.434 490.459 434.347 490.459 449.654V504H464.531V492.867H463.945C459.185 501.51 451.421 505.245 440.801 505.318C425.64 505.245 414.873 497.848 414.873 482.027ZM440.947 480.416C441.021 485.177 444.609 487.667 449.736 487.594C456.694 487.667 462.993 483.199 462.92 475.729V471.48C460.137 471.554 452.812 471.847 449.15 472.213C444.17 472.872 441.021 476.095 440.947 480.416Z" fill="white"/>
<path d="M353.789 505.025C336.577 505.099 322.295 491.695 322.295 464.303C322.295 435.665 337.603 423.434 353.496 423.434C365.581 423.434 372.905 430.392 375.908 438.229H376.348V397.945H404.033V504H376.641V490.963H375.908C372.686 498.873 365.142 505.099 353.789 505.025ZM350.859 464.156C350.786 476.314 355.547 483.712 363.75 483.785C372.026 483.712 377.007 476.168 377.08 464.156C377.007 452.071 372.1 444.747 363.75 444.82C355.547 444.747 350.786 452.145 350.859 464.156Z" fill="white"/>
<path d="M272.051 505.465C246.416 505.465 231.108 488.912 231.035 464.449C231.108 439.986 246.416 423.434 272.051 423.434C297.686 423.434 312.993 439.986 312.92 464.449C312.993 488.912 297.686 505.465 272.051 505.465ZM259.307 464.303C259.38 476.9 264.067 484.884 272.197 484.957C279.961 484.884 284.722 476.9 284.648 464.303C284.722 451.559 279.961 443.575 272.197 443.648C264.067 443.575 259.38 451.559 259.307 464.303Z" fill="white"/>
<path d="M167.461 504H127.178V397.945H167.168C199.834 397.945 220.195 417.794 220.195 450.973C220.195 484.078 199.834 504 167.461 504ZM155.01 480.27H166.436C182.769 480.27 192.07 473.312 192.07 450.973C192.07 428.561 182.769 421.676 165.703 421.676H155.01V480.27Z" fill="white"/>
<path d="M184.978 319.001H191.167C195.856 319.001 200.031 318.295 203.694 316.883C207.356 315.47 210.433 313.528 212.923 311.057C215.487 308.585 217.428 305.654 218.71 302.299C220.102 298.839 220.761 295.096 220.761 291.035C220.761 286.975 220.065 283.338 218.71 279.877C217.318 276.417 215.377 273.451 212.777 270.979C210.286 268.507 207.21 266.565 203.547 265.153C199.885 263.74 195.746 263.034 191.167 263.034H184.978V319.001ZM158.021 241H197.943C205.012 241 211.605 242.377 217.758 245.096C223.984 247.85 229.405 251.523 233.983 256.113C238.671 260.633 242.334 265.929 245.008 272.038C247.681 278.041 249 284.362 249 291C249 297.638 247.681 303.853 245.008 309.962C242.444 315.965 238.818 321.297 234.13 325.887C229.552 330.477 224.131 334.15 217.904 336.904C211.751 339.658 205.122 341 197.943 341H158.021V241Z" fill="white"/>
<path d="M120 280.796C120 278.709 120.399 276.761 121.233 274.917C122.067 273.004 123.191 271.334 124.642 269.942C126.092 268.551 127.76 267.473 129.682 266.673C131.676 265.872 133.78 265.49 135.955 265.49C138.131 265.49 140.162 265.872 142.084 266.673C144.078 267.473 145.819 268.551 147.269 269.942C148.719 271.334 149.844 273.004 150.678 274.917C151.512 276.761 151.911 278.709 151.911 280.796C151.911 282.883 151.512 284.901 150.678 286.814C149.844 288.658 148.719 290.258 147.269 291.649C145.819 293.041 144.078 294.119 142.084 294.919C140.162 295.719 138.131 296.102 135.955 296.102C133.78 296.102 131.676 295.719 129.682 294.919C127.76 294.119 126.092 293.041 124.642 291.649C123.191 290.258 122.067 288.658 121.233 286.814C120.399 284.901 120 282.883 120 280.796Z" fill="white"/>
<path d="M120 325.354C120 323.22 120.399 321.229 121.233 319.344C122.067 317.388 123.191 315.682 124.642 314.259C126.092 312.837 127.76 311.734 129.682 310.917C131.676 310.099 133.78 309.707 135.955 309.707C138.131 309.707 140.162 310.099 142.084 310.917C144.078 311.734 145.819 312.837 147.269 314.259C148.719 315.682 149.844 317.388 150.678 319.344C151.512 321.229 151.911 323.22 151.911 325.354C151.911 327.487 151.512 329.55 150.678 331.506C149.844 333.39 148.719 335.026 147.269 336.448C145.819 337.871 144.078 338.973 142.084 339.791C140.162 340.609 138.131 341 135.955 341C133.78 341 131.676 340.609 129.682 339.791C127.76 338.973 126.092 337.871 124.642 336.448C123.191 335.026 122.067 333.39 121.233 331.506C120.399 329.55 120 327.487 120 325.354Z" fill="white"/>
</svg>
