<svg width="20" height="20" viewBox="0 0 20 20" fill="none" xmlns="http://www.w3.org/2000/svg">
<path d="M18.75 6.2125V12.5L10 13.75L1.25 12.5V6.2125C1.25 5.54375 1.79375 5 2.4625 5H17.5375C18.2125 5 18.75 5.54375 18.75 6.2125Z" fill="#E6E6E6"/>
<path d="M3.75 11.3375V6.78751C3.75 6.49376 3.4875 6.25 3.16875 6.25H1.25V11.875H3.16875C3.4875 11.875 3.75 11.6313 3.75 11.3375ZM5.58125 6.25H8.175C8.49375 6.25 8.75 6.49376 8.75625 6.78751V11.3313C8.75625 11.625 8.49375 11.8688 8.175 11.8688H5.58125C5.2625 11.8688 5 11.6313 5 11.3313V6.78751C5 6.49376 5.2625 6.25 5.58125 6.25ZM12.55 6.25H9.95625C9.6375 6.25 9.375 6.49376 9.375 6.78751V11.3313C9.375 11.6313 9.6375 11.8688 9.95625 11.8688H12.55C12.8688 11.8688 13.1312 11.625 13.1312 11.3313V6.78751C13.125 6.49376 12.8688 6.25 12.55 6.25ZM14.3312 6.25H16.925C17.2438 6.25 17.5 6.49376 17.5062 6.78751V11.3313C17.5062 11.625 17.2438 11.8688 16.925 11.8688H14.3312C14.0125 11.8688 13.75 11.6313 13.75 11.3313V6.78751C13.75 6.49376 14.0125 6.25 14.3312 6.25Z" fill="#26C9FC"/>
<path d="M18.75 12.5V15.6625C18.75 16.3312 18.2062 16.875 17.5375 16.875H2.4625C1.79375 16.875 1.25 16.3312 1.25 15.6625C1.25 14.743 1.25 13.5588 1.25 12.5H18.75Z" fill="#FFB02E"/>
<path d="M1.25 6.25H3.16875C3.4875 6.25 3.75 6.49376 3.75 6.78751V6.875V7.5H1.25V6.875V6.25ZM4.075 10.625H3.83125C3.44375 10.625 3.125 10.3125 3.125 9.91875V8.83125C3.125 8.44375 3.44375 8.125 3.83125 8.125H4.075C4.2375 8.125 4.375 8.25626 4.375 8.42501V10.325C4.375 10.4875 4.24375 10.625 4.075 10.625ZM7.51875 16.5625C7.51875 17.7706 6.53937 18.75 5.33125 18.75C4.12313 18.75 3.14375 17.7706 3.14375 16.5625C3.14375 15.3544 4.12313 14.375 5.33125 14.375C6.53937 14.375 7.51875 15.3544 7.51875 16.5625ZM14.6937 18.75C15.9019 18.75 16.8812 17.7706 16.8812 16.5625C16.8812 15.3544 15.9019 14.375 14.6937 14.375C13.4856 14.375 12.5062 15.3544 12.5062 16.5625C12.5062 17.7706 13.4856 18.75 14.6937 18.75Z" fill="#212121"/>
<path d="M18.7501 13.125H18.4376C17.9063 13.125 17.4751 13.5688 17.5001 14.1063C17.5251 14.6125 17.9626 15 18.4688 15H18.7501V13.125Z" fill="#F92F60"/>
<path d="M1.81875 15.625H1.25V13.125H1.81875C2.19375 13.125 2.5 13.4312 2.5 13.8062V14.9438C2.5 15.3188 2.2 15.625 1.81875 15.625Z" fill="#FFF478"/>
<path d="M6.25 16.5625C6.25 17.0803 5.83027 17.5 5.3125 17.5C4.79473 17.5 4.375 17.0803 4.375 16.5625C4.375 16.0447 4.79473 15.625 5.3125 15.625C5.83027 15.625 6.25 16.0447 6.25 16.5625ZM15.625 16.5625C15.625 17.0803 15.2053 17.5 14.6875 17.5C14.1697 17.5 13.75 17.0803 13.75 16.5625C13.75 16.0447 14.1697 15.625 14.6875 15.625C15.2053 15.625 15.625 16.0447 15.625 16.5625Z" fill="#D3D3D3"/>
</svg>
