<svg width="20" height="20" viewBox="0 0 20 20" fill="none" xmlns="http://www.w3.org/2000/svg">
<path d="M9.99931 18.7486C15.8333 18.7486 18.7486 14.8314 18.7486 9.99931C18.7486 5.16719 15.8333 1.25 9.99931 1.25C4.16527 1.25 1.25 5.16719 1.25 9.99931C1.25 14.8314 4.16527 18.7486 9.99931 18.7486Z" fill="#FFB02E"/>
<path d="M6.875 10C6.875 10.6904 6.03553 11.25 5 11.25C3.96447 11.25 3.125 10.6904 3.125 10C3.125 9.30963 3.96447 8.75 5 8.75C6.03553 8.75 6.875 9.30963 6.875 10Z" fill="#FF6723"/>
<path d="M16.875 10C16.875 10.6904 16.0356 11.25 15 11.25C13.9644 11.25 13.125 10.6904 13.125 10C13.125 9.30963 13.9644 8.75 15 8.75C16.0356 8.75 16.875 9.30963 16.875 10Z" fill="#FF6723"/>
<path d="M5.61347 7.61931C5.64352 7.46475 5.71232 7.27531 5.8431 7.13281C5.95518 7.01069 6.15436 6.875 6.56244 6.875C6.96356 6.875 7.16781 7.0135 7.28575 7.143C7.42206 7.29269 7.48775 7.48356 7.50919 7.60694C7.56825 7.947 7.89181 8.17481 8.23187 8.11581C8.572 8.05675 8.79981 7.73313 8.74075 7.39306C8.69137 7.10875 8.54994 6.67462 8.20981 6.30125C7.85125 5.90761 7.30969 5.625 6.56244 5.625C5.82227 5.625 5.28293 5.89456 4.92219 6.28756C4.58016 6.66025 4.44185 7.09581 4.38646 7.38069C4.32057 7.71956 4.54184 8.04762 4.88067 8.1135C5.2195 8.17937 5.54759 7.95812 5.61347 7.61931Z" fill="#402A32"/>
<path d="M12.4886 7.61931C12.5187 7.46475 12.5875 7.27531 12.7183 7.13281C12.8303 7.01069 13.0295 6.875 13.4376 6.875C13.8387 6.875 14.0429 7.0135 14.1609 7.143C14.2973 7.29269 14.3629 7.48356 14.3843 7.60694C14.4434 7.947 14.7669 8.17481 15.1071 8.11581C15.4471 8.05675 15.6749 7.73313 15.6159 7.39306C15.5665 7.10875 15.4251 6.67462 15.0849 6.30125C14.7264 5.90761 14.1848 5.625 13.4376 5.625C12.6974 5.625 12.1581 5.89456 11.7974 6.28756C11.4553 6.66025 11.317 7.09581 11.2616 7.38069C11.1958 7.71956 11.417 8.04762 11.7558 8.1135C12.0946 8.17937 12.4228 7.95812 12.4886 7.61931Z" fill="#402A32"/>
<path d="M5.87504 11.3751C6.15118 11.1679 6.54294 11.2239 6.75006 11.5001C6.96344 11.7846 8.03881 12.8126 10.0001 12.8126C11.9613 12.8126 13.0366 11.7846 13.2501 11.5001C13.4571 11.2239 13.8489 11.1679 14.1251 11.3751C14.4012 11.5821 14.4571 11.9739 14.2501 12.2501C13.8384 12.7989 12.4138 14.0626 10.0001 14.0626C7.58631 14.0626 6.16165 12.7989 5.75004 12.2501C5.54293 11.9739 5.59889 11.5821 5.87504 11.3751Z" fill="#402A32"/>
</svg>
