<svg width="24" height="24" viewBox="0 0 24 24" fill="none" xmlns="http://www.w3.org/2000/svg">
<path d="M0.333344 9.86256C0.333344 15.122 4.59545 19.3938 9.83818 19.3938C11.7879 19.3938 13.5772 18.7929 15.069 17.7787L20.4333 23.1675C20.7691 23.5043 21.214 23.6647 21.6822 23.6647C22.6758 23.6647 23.3864 22.9116 23.3864 21.9269C23.3864 21.4637 23.217 21.0314 22.8961 20.7097L17.5731 15.3409C18.6874 13.8035 19.3429 11.9135 19.3429 9.86256C19.3429 4.60534 15.0809 0.333496 9.83818 0.333496C4.59545 0.333496 0.333344 4.60534 0.333344 9.86256ZM3.01112 9.86256C3.01112 5.97362 5.95995 2.66683 9.83818 2.66683C13.7163 2.66683 16.5941 5.97362 16.5941 9.86256C16.5941 13.7536 13.7163 16.6668 9.83818 16.6668C5.95995 16.6668 3.01112 13.7536 3.01112 9.86256Z" fill="#5D5F60"/>
</svg>
