<svg width="18" height="19" viewBox="0 0 18 19" fill="none" xmlns="http://www.w3.org/2000/svg">
<path d="M8.99925 5.1875C8.71117 5.19057 8.46292 5.29827 8.24325 5.5265L1.77825 12.1303C1.593 12.3226 1.5 12.5519 1.5 12.8288C1.5 13.3742 1.92803 13.8125 2.47845 13.8125C2.74665 13.8125 2.9949 13.7033 3.1878 13.5142L8.99775 7.55225L14.8108 13.5142C15.002 13.7018 15.2448 13.8125 15.5215 13.8125C16.0705 13.8125 16.5 13.3742 16.5 12.8288C16.5 12.5549 16.407 12.3226 16.2148 12.1303L9.75517 5.5265C9.5286 5.2967 9.28575 5.1875 8.99925 5.1875Z" fill="#747678"/>
</svg>
