<svg width="20" height="20" viewBox="0 0 20 20" fill="none" xmlns="http://www.w3.org/2000/svg">
<path d="M18.3812 1.79346C18.3812 1.46221 18.0938 1.21221 17.7688 1.25596L7.1625 2.63096C6.89375 2.66846 6.6875 2.89971 6.6875 3.17471V11.681C6.31875 11.556 5.91875 11.481 5.50625 11.481C3.5 11.481 1.875 13.1122 1.875 15.1185C1.875 17.1247 3.5 18.7497 5.50625 18.7497C7.5125 18.7497 9.1375 17.1247 9.1375 15.1185C9.1375 15.0435 9.13125 14.9622 9.13125 14.8872V6.19971C9.13125 5.95596 9.3125 5.75596 9.55 5.72471L15.3937 4.96846C15.6812 4.93096 15.9375 5.15596 15.9375 5.44346V9.52471C15.5625 9.39346 15.1625 9.32471 14.75 9.32471C12.7438 9.32471 11.1187 10.9497 11.1187 12.956C11.1187 14.9622 12.7438 16.5872 14.75 16.5872C16.7563 16.5872 18.3812 14.9622 18.3812 12.956C18.3812 12.9497 18.3812 12.9497 18.3812 12.9435V1.79346Z" fill="#402A32"/>
</svg>
