<svg width="24" height="24" viewBox="0 0 24 24" fill="none" xmlns="http://www.w3.org/2000/svg">
<path d="M17.0002 3.33989C18.5085 4.21075 19.7632 5.46042 20.64 6.96519C21.5169 8.46997 21.9856 10.1777 21.9997 11.9192C22.0137 13.6608 21.5727 15.3758 20.7203 16.8946C19.8678 18.4133 18.6334 19.6831 17.1394 20.5782C15.6454 21.4733 13.9435 21.9627 12.2022 21.998C10.4609 22.0332 8.74063 21.6131 7.21162 20.7791C5.6826 19.9452 4.3979 18.7264 3.48468 17.2434C2.57147 15.7604 2.06141 14.0646 2.005 12.3239L2 11.9999L2.005 11.6759C2.061 9.94888 2.56355 8.26585 3.46366 6.79088C4.36376 5.31592 5.6307 4.09934 7.14095 3.25977C8.65121 2.42021 10.3532 1.98629 12.0811 2.00033C13.809 2.01437 15.5038 2.47589 17.0002 3.33989ZM12.0001 5.99989C11.7552 5.99992 11.5188 6.08985 11.3357 6.25261C11.1527 6.41537 11.0358 6.63964 11.0071 6.88289L11.0001 6.99989V11.9999L11.0091 12.1309C11.0319 12.3044 11.0998 12.4689 11.2061 12.6079L11.2931 12.7079L14.2932 15.7079L14.3872 15.7899C14.5625 15.926 14.7782 15.9998 15.0002 15.9998C15.2221 15.9998 15.4378 15.926 15.6132 15.7899L15.7072 15.7069L15.7902 15.6129C15.9262 15.4375 16.0001 15.2219 16.0001 14.9999C16.0001 14.7779 15.9262 14.5623 15.7902 14.3869L15.7072 14.2929L13.0001 11.5849V6.99989L12.9931 6.88289C12.9645 6.63964 12.8475 6.41537 12.6645 6.25261C12.4815 6.08985 12.2451 5.99992 12.0001 5.99989Z" fill="#FFC800"/>
</svg>
