<svg width="24" height="24" viewBox="0 0 24 24" fill="none" xmlns="http://www.w3.org/2000/svg">
<path fill-rule="evenodd" clip-rule="evenodd" d="M8.00208 6.9C8.00208 5.83913 8.4235 4.82172 9.17365 4.07157C9.92379 3.32143 10.9412 3 12.0021 3C13.0629 3 14.0804 3.32143 14.8305 4.07157C15.5806 4.82172 16.0021 5.83913 16.0021 6.9C16.0021 7.96087 15.5806 8.97828 14.8305 9.72843C14.0804 10.4786 13.0629 10.9 12.0021 10.9C10.9412 10.9 9.92379 10.4786 9.17365 9.72843C8.4235 8.97828 8.00208 7.96087 8.00208 6.9ZM8.00208 12.25C6.00208 12.5 5.40422 13.0268 4.46654 13.9645C3.52886 14.9021 3.00207 16.1739 3.00207 17.5C3.00207 18.2956 2.93947 19.4374 3.50208 20C4.06468 20.5626 5.20643 20.5 6.00207 20.5H18.0021C18.7977 20.5 19.9395 20.5626 20.5021 20C21.0647 19.4374 21.0021 18.2956 21.0021 17.5C21.0021 16.1739 20.4753 14.9021 19.5376 13.9645C18.5999 13.0268 18.0021 12.5 16.0021 12.25C14.0021 12 13.5763 12 12.0021 12C10.4278 12 10.0021 12 8.00208 12.25Z" fill="black"/>
</svg>
