<svg width="24" height="24" viewBox="0 0 24 24" fill="none" xmlns="http://www.w3.org/2000/svg">
<path d="M12.3775 22C16.6969 22 20.2699 19.7623 21.86 16.0281C22.066 15.5417 22.0448 15.1224 21.7954 14.8808C21.5885 14.6739 21.2018 14.6465 20.7919 14.8092C19.8195 15.2058 18.6667 15.4243 17.3748 15.4243C12.1522 15.4243 8.7386 12.1287 8.7386 7.0541C8.7386 5.71905 9.00824 4.21988 9.43124 3.35039C9.66054 2.87233 9.65214 2.46974 9.43659 2.22809C9.20939 1.96325 8.7878 1.92644 8.26045 2.1313C4.52774 3.60596 2 7.4518 2 11.7944C2 17.6323 6.3275 22 12.3775 22Z" fill="black"/>
<path d="M19.375 2.875C19.375 2.39175 18.9832 2 18.5 2C18.0168 2 17.625 2.39175 17.625 2.875V8.125C17.625 8.60825 18.0168 9 18.5 9C18.9832 9 19.375 8.60825 19.375 8.125V2.875Z" fill="black"/>
<path d="M21.125 6.375C21.6082 6.375 22 5.98325 22 5.5C22 5.01675 21.6082 4.625 21.125 4.625H15.875C15.3918 4.625 15 5.01675 15 5.5C15 5.98325 15.3918 6.375 15.875 6.375H21.125Z" fill="black"/>
</svg>
