<svg width="24" height="24" viewBox="0 0 24 24" fill="none" xmlns="http://www.w3.org/2000/svg">
<path d="M11.9271 21.9938C17.3657 21.9938 21.8558 17.4659 21.8558 11.9969C21.8558 6.51995 17.3578 2 11.9192 2C6.49014 2 2 6.51995 2 11.9969C2 17.4659 6.49801 21.9938 11.9271 21.9938ZM11.9271 20.0245C7.50343 20.0245 3.96337 16.4517 3.96337 11.9969C3.96337 7.54215 7.49555 3.96925 11.9192 3.96925C16.3428 3.96925 19.9004 7.54215 19.9004 11.9969C19.9004 16.4517 16.3507 20.0245 11.9271 20.0245Z" fill="black"/>
<path d="M10.8872 16.5974C11.232 16.5974 11.5323 16.4252 11.7365 16.106L16.0351 9.34437C16.1564 9.13514 16.2727 8.91001 16.2727 8.6919C16.2727 8.20763 15.8467 7.88513 15.3946 7.88513C15.1129 7.88513 14.8519 8.05394 14.6485 8.37292L10.854 14.5118L9.06797 12.2182C8.83216 11.9119 8.60516 11.8171 8.3153 11.8171C7.85188 11.8171 7.47845 12.1959 7.47845 12.6705C7.47845 12.9043 7.56838 13.1145 7.72714 13.3245L9.99942 16.1129C10.257 16.4427 10.5389 16.5974 10.8872 16.5974Z" fill="black"/>
</svg>
