<svg width="36" height="36" viewBox="0 0 36 36" fill="none" xmlns="http://www.w3.org/2000/svg">
<path d="M32.185 15.0851C32.7503 14.2894 32.1797 13.7467 31.204 13.7743C31.1555 13.7757 31.1068 13.7764 31.058 13.7764C28.262 13.7764 26.0376 11.5117 26.0376 8.71577C26.0376 8.45992 26.169 7.90192 26.2056 7.65628C26.3495 6.69106 25.7472 6.07535 24.8895 6.5409C22.9597 7.58838 21.1699 9.47167 21.1699 11.8218C21.1699 15.2391 23.9658 17.7703 27.383 17.7703C29.4664 17.7703 31.0637 16.6633 32.185 15.0851Z" fill="#FFB02E"/>
<path d="M3.31218 33.7498H10.2099L14.3484 32.4553L18.4869 33.7498C19.4541 33.7498 20.3379 33.1618 20.6881 32.2798L26.7914 16.7462C26.9748 16.2888 26.6246 15.7988 26.1244 15.7988H9.31538C9.01522 15.7988 8.74842 15.9785 8.64836 16.2562L2.32831 32.3614C2.04482 33.0148 2.56178 33.7498 3.31218 33.7498Z" fill="#44911B"/>
<path d="M20.6881 32.2636L26.7914 16.7301C26.9748 16.2727 26.6246 15.7827 26.1244 15.7827H12.1336C11.8334 15.7827 11.5666 15.9624 11.4665 16.2401L4.59619 33.75H10.2214L13.6661 32.8921L18.5036 33.75C19.4541 33.75 20.3379 33.162 20.6881 32.2636Z" fill="#86D72F"/>
<path d="M10.233 33.7499H18.4874C18.5541 33.7499 18.6208 33.7172 18.6875 33.7172V18.543H10.2163V33.7499H10.233Z" fill="#1C1C1C"/>
<path d="M8.88231 15.9297L15.3024 32.2636C15.6526 33.162 16.5197 33.7337 17.5036 33.7337H32.6784C33.4288 33.7337 33.9457 32.9987 33.6789 32.3126L27.3589 16.2074C27.2588 15.9297 26.992 15.75 26.6918 15.75H26.1415H9.33256C9.14913 15.7827 8.99904 15.848 8.88231 15.9297Z" fill="#86D72F"/>
<path d="M23.6073 25.4525H20.2555C19.8219 25.4525 19.4384 25.1912 19.2716 24.7991L17.8709 21.3527C17.5874 20.6667 18.1043 19.9316 18.8547 19.9316H22.2065C22.6401 19.9316 23.0236 20.193 23.1904 20.585L24.5911 24.0314C24.8746 24.7175 24.3577 25.4525 23.6073 25.4525Z" fill="#44911B"/>
</svg>
