<svg width="20" height="20" viewBox="0 0 20 20" fill="none" xmlns="http://www.w3.org/2000/svg">
<path d="M17.7619 15.4165H3.07141C2.29724 15.4165 1.66667 14.7856 1.66667 14.011V5.572C1.66667 4.79738 2.29724 4.1665 3.07141 4.1665H17.7619C18.5361 4.1665 19.1667 4.79738 19.1667 5.572V14.011C19.1667 14.7919 18.5361 15.4165 17.7619 15.4165Z" fill="#00A6ED"/>
<path d="M15.0332 11.6665H3.92514C3.71769 11.6665 3.54167 11.4961 3.54167 11.2814V9.55163C3.54167 9.34325 3.7114 9.1665 3.92514 9.1665H15.0332C15.2407 9.1665 15.4167 9.33694 15.4167 9.55163V11.2877C15.4167 11.4961 15.2469 11.6665 15.0332 11.6665Z" fill="#F4F4F4"/>
<path d="M16.2624 14.1665H17.3834C17.6804 14.1665 17.9167 13.9302 17.9167 13.6333V12.5123C17.9167 12.2153 17.6804 11.979 17.3834 11.979H16.2624C15.9655 11.979 15.7292 12.2153 15.7292 12.5123V13.6333C15.7292 13.9241 15.9715 14.1665 16.2624 14.1665Z" fill="#FFF478"/>
<path d="M19.1667 6.0415H1.66667V7.9165H19.1667V6.0415Z" fill="#321B41"/>
<path d="M4.16667 10.4165C4.16667 10.2439 4.30658 10.104 4.47917 10.104H11.3542C11.5267 10.104 11.6667 10.2439 11.6667 10.4165C11.6667 10.5891 11.5267 10.729 11.3542 10.729H4.47917C4.30658 10.729 4.16667 10.5891 4.16667 10.4165Z" fill="#9B9B9B"/>
</svg>
